<svg width="70" height="69" viewBox="0 0 70 69" fill="none" xmlns="http://www.w3.org/2000/svg">
<path d="M68.6488 37.7689C68.6488 37.7679 68.6476 37.7674 68.6469 37.7682C68.545 37.8755 68.4512 37.9664 68.3438 38.0546C68.3433 38.055 68.343 38.0552 68.3426 38.0556C68.3296 38.0664 68.0796 38.2735 67.7902 38.4358C66.9482 38.9082 59.0816 40.6171 58.3091 43.3653C58.059 44.2545 58.4953 45.4466 58.8121 46.3135C58.9871 46.7942 59.1066 46.9582 59.5762 47.9335C60.0292 48.8727 60.4765 49.8147 60.8683 50.7734C61.1407 51.4431 61.7687 53.1298 61.4463 54.9081C60.9434 57.6924 58.1896 60.1405 55.6082 60.1488C55.2525 60.1488 54.9552 60.1016 54.3828 59.9682C51.5874 59.3096 48.8587 57.6507 46.0994 56.8338C45.2241 56.5754 44.7378 56.706 44.3432 56.8644C42.2564 57.7119 43.0456 61.227 40.2918 65.1283C39.5694 66.1509 39.1081 66.8039 38.205 67.3179C35.6847 68.7518 31.8167 67.9098 29.4965 65.8897C25.6368 62.5302 27.5263 57.1923 24.9449 56.2447C22.4829 55.3388 20.4295 60.0794 15.4889 60.0043C15.1527 59.9988 11.6542 59.896 9.72302 57.359C7.48614 54.4246 8.80604 50.1343 8.96998 49.6341C9.79707 47.0706 10.6199 45.3764 10.8195 44.9801C10.8497 44.92 10.8808 44.8595 10.9107 44.7992C11.8066 42.9925 11.708 42.7296 11.6014 42.4344C11.104 41.0867 5.71887 41.7842 2.66504 39.3861C0.353135 37.5744 0.0641472 34.5206 0.0196875 33.9259C-0.0219935 33.3341 -0.127585 30.9555 1.32847 28.8798C4.21001 24.7728 10.0231 26.3872 10.9762 23.6613C11.757 21.4328 7.96964 20.074 7.92796 15.728C7.90295 13.1299 9.22285 10.2095 11.5987 8.60892C13.0631 7.62247 14.508 7.4224 14.8498 7.38072C19.8737 6.77495 22.6552 11.9545 25.0977 10.9375C27.3485 9.99828 25.4979 5.38837 28.8296 2.19005C30.6691 0.425553 33.609 -0.446969 36.1154 0.228263C38.5107 0.872928 39.9139 2.76802 40.8587 4.04624C43.3735 7.44185 42.5287 9.55924 44.1848 10.3151C46.5384 11.3904 48.6892 7.30291 53.6325 7.31403C54.1633 7.31403 57.7145 7.32236 59.5457 9.6954C61.3407 12.0184 60.596 15.4613 60.0931 17.7954C59.1955 21.944 57.5533 22.8972 58.3064 24.2837C59.3289 26.1649 63.5637 26.6345 66.4564 27.935C66.6898 28.0406 67.1677 28.2601 67.679 28.6853C68.1709 29.0909 68.5543 29.5744 68.9322 30.1635C70.4127 32.4718 70.3855 35.9685 68.6507 37.7697C68.65 37.7704 68.6488 37.7699 68.6488 37.7689V37.7689Z" fill="white"/>
</svg>
