<svg width="19" height="17" viewBox="0 0 19 17" fill="none" xmlns="http://www.w3.org/2000/svg">
<path d="M8.55314 0.787438C8.86038 -0.117044 10.1396 -0.117041 10.4469 0.787441L11.8515 4.92245C11.9892 5.32802 12.37 5.60081 12.7983 5.60081H17.2459C18.2254 5.60081 18.6209 6.86303 17.8166 7.42199L14.296 9.86861C13.9299 10.1231 13.7764 10.5892 13.9198 11.0114L15.2824 15.0227C15.5927 15.9363 14.5572 16.7161 13.7649 16.1655L10.0707 13.5982C9.72758 13.3598 9.27242 13.3598 8.92932 13.5982L5.23512 16.1655C4.44284 16.7161 3.40726 15.9363 3.71758 15.0227L5.08016 11.0114C5.22358 10.5892 5.07014 10.1231 4.70398 9.86861L1.18342 7.42199C0.379115 6.86303 0.774643 5.60081 1.7541 5.60081H6.20166C6.62999 5.60081 7.01075 5.32802 7.14852 4.92245L8.55314 0.787438Z" fill="white"/>
</svg>
